<?xml version="1.0" encoding="iso-8859-1"?>
<!-- Generator: Adobe Illustrator 19.0.0, SVG Export Plug-In . SVG Version: 6.00 Build 0)  -->
<svg version="1.1" id="Capa_1" xmlns="http://www.w3.org/2000/svg" xmlns:xlink="http://www.w3.org/1999/xlink" x="0px" y="0px"
	 viewBox="0 0 512 512" style="enable-background:new 0 0 512 512;" xml:space="preserve">
<g>
	<path style="fill:#FF9811;" d="M364.039,92.553c0-0.031,0.01-0.062,0.01-0.083c2.912-27.901-2.021-53.387-5.618-67.275
		c-1.513-5.804-8.146-8.53-13.298-5.452c-31.379,18.738-60.957,47.757-73.079,82.584c29.549,3.046,57.407,14.549,80.417,32.99
		C358.807,121.874,362.478,107.39,364.039,92.553z"/>
	<path style="fill:#FF9811;" d="M153.568,486.805c1.513,5.804,8.146,8.53,13.298,5.452c31.31-18.696,60.939-47.702,73.079-82.584
		c-29.549-3.046-57.407-14.55-80.417-32.99C143.783,410.093,144.272,450.906,153.568,486.805z"/>
	<path style="fill:#FF9811;" d="M492.257,345.134c-18.87-31.601-47.855-60.991-82.584-73.079
		c-3.046,29.55-14.551,57.41-32.99,80.417c33.41,15.745,74.226,15.255,110.122,5.96
		C492.609,356.918,495.335,350.285,492.257,345.134z"/>
	<path style="fill:#FF9811;" d="M102.327,239.946c3.046-29.55,14.55-57.41,32.99-80.417c-33.516-15.795-74.535-15.176-110.122-5.96
		c-5.804,1.513-8.53,8.146-5.452,13.298C38.633,198.5,67.583,227.853,102.327,239.946z"/>
	<path style="fill:#FF9811;" d="M273.112,409.559c12.603,34.906,41.803,63.33,73.66,82.076c5.172,3.037,11.795,0.27,13.256-5.545
		c9.014-35.737,9.309-76.677-6.716-110.08C330.31,394.685,302.485,406.353,273.112,409.559z"/>
	<path style="fill:#FF9811;" d="M238.888,102.441c-12.602-34.902-41.798-63.327-73.66-82.076
		c-5.172-3.037-11.795-0.269-13.256,5.545c-9.1,36.079-9.191,76.924,6.716,110.08C181.69,117.315,209.515,105.647,238.888,102.441z"
		/>
	<path style="fill:#FF9811;" d="M20.365,346.772c-3.037,5.172-0.269,11.795,5.545,13.256c35.656,8.993,76.71,9.294,110.08-6.716
		c-18.686-23.014-30.345-50.841-33.55-80.2C67.592,285.695,39.155,314.839,20.365,346.772z"/>
	<path style="fill:#FF9811;" d="M491.635,165.228c3.037-5.172,0.269-11.795-5.545-13.256c-36.075-9.099-76.924-9.192-110.08,6.716
		c18.686,23.014,30.345,50.84,33.55,80.2C444.415,226.302,472.847,197.157,491.635,165.228z"/>
</g>
<g>
	<path style="fill:#FFCD00;" d="M391.079,180.951c27.25-24.933,42.309-63.001,47.293-99.602c0.808-5.939-4.301-10.986-10.23-10.095
		c-36.804,5.538-74.217,21.021-98.949,48.651C354.253,133.396,376.187,154.229,391.079,180.951z"/>
	<path style="fill:#FFCD00;" d="M120.921,331.049c-27.252,24.935-42.309,63.002-47.293,99.602
		c-0.808,5.939,4.301,10.986,10.23,10.095c36.804-5.538,74.217-21.022,98.949-48.651
		C157.374,378.404,135.617,357.419,120.921,331.049z"/>
	<path style="fill:#FFCD00;" d="M392.095,329.193c-13.718,25.482-34.726,47.217-61.046,61.886
		c24.877,27.191,62.951,42.301,99.602,47.293c5.939,0.808,10.986-4.301,10.095-10.23
		C435.207,391.339,419.724,353.925,392.095,329.193z"/>
	<path style="fill:#FFCD00;" d="M119.905,182.806c13.719-25.484,34.727-47.218,61.046-61.886
		c-24.936-27.254-63.007-42.309-99.602-47.293c-5.939-0.808-10.986,4.301-10.095,10.23
		C76.794,120.672,92.281,158.078,119.905,182.806z"/>
	<path style="fill:#FFCD00;" d="M213.558,404.595c-1.727,36.605,14.637,74.452,36.98,103.862c3.638,4.768,10.81,4.716,14.375-0.104
		c8.53-11.536,22.615-33.353,30.316-60.321c0-0.021,0.01-0.041,0.01-0.062c4.062-14.216,6.107-29.089,5.244-43.966
		C271.27,412.758,240.796,412.381,213.558,404.595z"/>
	<path style="fill:#FFCD00;" d="M298.442,107.405c1.735-36.778-14.724-74.567-36.98-103.862c-3.638-4.768-10.81-4.716-14.375,0.104
		c-8.53,11.536-22.615,33.353-30.316,60.321c0,0.021-0.01,0.041-0.01,0.062c-4.062,14.216-6.107,29.089-5.244,43.966
		C239.816,99.516,270.26,99.348,298.442,107.405z"/>
	<path style="fill:#FFCD00;" d="M107.996,300.484c-8.754-29.213-8.379-59.687-0.591-86.926
		c-36.856-1.737-74.719,14.839-103.862,36.98c-4.768,3.638-4.716,10.81,0.104,14.375c11.536,8.53,33.353,22.615,60.321,30.316
		c0.021,0,0.041,0.01,0.062,0.01C78.185,299.284,93.06,301.348,107.996,300.484z"/>
	<path style="fill:#FFCD00;" d="M508.353,247.087c-11.536-8.53-33.353-22.615-60.321-30.316c-0.021,0-0.041-0.01-0.062-0.01
		c-14.155-4.044-29.03-6.109-43.966-5.244c8.662,28.905,8.469,59.372,0.591,86.926c36.856,1.736,74.715-14.836,103.862-36.98
		C513.224,257.824,513.172,250.652,508.353,247.087z"/>
</g>
<path style="fill:#EEBF00;" d="M410.502,256c0,79.195-59.585,144.47-136.365,153.445c-5.949,0.694-12.002,1.057-18.138,1.057
	c-85.33,0-154.502-69.172-154.502-154.502S170.67,101.498,256,101.498c6.136,0,12.189,0.363,18.138,1.057
	C350.917,111.53,410.502,176.805,410.502,256z"/>
<path style="fill:#FFD422;" d="M410.502,256c0,79.195-59.585,144.47-136.365,153.445C197.358,400.47,137.773,335.194,137.773,256
	s59.585-144.47,136.365-153.445C350.917,111.53,410.502,176.805,410.502,256z"/>
<g>
	<circle style="fill:#FF9811;" cx="183.782" cy="196.748" r="14.572"/>
	<circle style="fill:#FF9811;" cx="323.1" cy="196.748" r="14.572"/>
	<path style="fill:#FF9811;" d="M256,276.211c-16.573,0-30.057-13.483-30.057-30.057v-13.992c0-4.293,3.479-7.773,7.773-7.773
		c4.294,0,7.773,3.48,7.773,7.773v13.992c0,8.001,6.509,14.51,14.51,14.51c8.001,0,14.51-6.509,14.51-14.51v-13.992
		c0-4.293,3.479-7.773,7.773-7.773c4.294,0,7.773,3.48,7.773,7.773v13.992C286.057,262.728,272.573,276.211,256,276.211z"/>
</g>
<g>
</g>
<g>
</g>
<g>
</g>
<g>
</g>
<g>
</g>
<g>
</g>
<g>
</g>
<g>
</g>
<g>
</g>
<g>
</g>
<g>
</g>
<g>
</g>
<g>
</g>
<g>
</g>
<g>
</g>
</svg>
