<?xml version="1.0" encoding="utf-8"?>
<!-- Generator: Adobe Illustrator 22.0.1, SVG Export Plug-In . SVG Version: 6.00 Build 0)  -->
<svg version="1.1" id="Слой_1" xmlns="http://www.w3.org/2000/svg" xmlns:xlink="http://www.w3.org/1999/xlink" x="0px" y="0px"
	 viewBox="0 0 32 32" style="enable-background:new 0 0 32 32;" xml:space="preserve">
<style type="text/css">
	.st0{fill:#41E800;stroke:#41E800;stroke-miterlimit:10;}
	.st1{opacity:0.56;fill:none;stroke:#41E800;stroke-miterlimit:10;}
</style>
<path id="Expand_Less" class="st0" d="M16.7,11.3c-0.4-0.4-1-0.4-1.4,0l-9,9c-0.4,0.4-0.4,1,0,1.4c0.4,0.4,1,0.4,1.4,0l8.3-8.3
	l8.3,8.3c0.4,0.4,1,0.4,1.4,0c0.4-0.4,0.4-1,0-1.4L16.7,11.3z"/>
<path class="st1" d="M20.7,26.9h-9.2c-4.9,0-8.9-4-8.9-8.9v-3c0-4.9,4-8.9,8.9-8.9h9.2c4.9,0,8.9,4,8.9,8.9v3
	C29.7,22.9,25.7,26.9,20.7,26.9z"/>
</svg>
